<mxfile host="app.diagrams.net" modified="2024-06-27T12:54:18.180Z" agent="Mozilla/5.0 (Macintosh; Intel Mac OS X 10_15_7) AppleWebKit/537.36 (KHTML, like Gecko) Chrome/125.0.0.0 Safari/537.36" version="24.6.3" etag="aQWD3ak8Y9M5B8a46F2M" type="github">
  <diagram name="Page-1" id="-iNFB6lqGilSVw9JyQ1o">
    <mxGraphModel>
      <root>
        <mxCell id="0" />
        <mxCell id="1" parent="0" />
      </root>
    </mxGraphModel>
  </diagram>
</mxfile>
